<svg t="1655716329082" class="icon" viewBox="0 0 1024 1024" version="1.1" xmlns="http://www.w3.org/2000/svg" p-id="1528" width="32" height="32">
    <path d="M457.588364 99.560727a108.869818 108.869818 0 0 1 108.776727 0L843.403636 257.861818a108.916364 108.916364 0 0 1 54.551273 94.254546v316.741818c0 38.865455-20.759273 74.752-54.458182 94.161454l-0.093091 0.093091-277.038545 158.301091a108.869818 108.869818 0 0 1-108.776727 0L180.596364 763.112727a108.916364 108.916364 0 0 1-54.551273-94.254545V352.116364c0-38.865455 20.805818-74.752 54.458182-94.161455l0.093091-0.093091z m406.202181 196.514909a29.696 29.696 0 0 0-40.587636-10.798545l-310.970182 179.805091L201.262545 285.323636a29.696 29.696 0 0 0-29.78909 51.386182l310.784 179.712v377.949091c0 15.825455 13.312 28.672 29.742545 28.672a29.184 29.184 0 0 0 29.649455-28.672V516.654545l311.296-179.991272a29.696 29.696 0 0 0 12.89309-36.212364z" fill="#2c2c2c" p-id="1529">
    </path>
</svg>