<?xml version="1.0" standalone="no"?><!DOCTYPE svg PUBLIC "-//W3C//DTD SVG 1.1//EN" "http://www.w3.org/Graphics/SVG/1.1/DTD/svg11.dtd"><svg t="1655781749197" class="icon" viewBox="0 0 1024 1024" version="1.1" xmlns="http://www.w3.org/2000/svg" p-id="4157" width="32" height="32" xmlns:xlink="http://www.w3.org/1999/xlink"><defs><style type="text/css"></style></defs><path d="M136.746667 573.397333l2.261333-0.298666 3.413333-0.170667a35.413333 35.413333 0 0 1 9.386667 1.28l2.816 0.853333 1.194667 0.512c10.24 4.181333 18.389333 13.098667 21.333333 24.789334 39.509333 156.032 177.194667 265.002667 334.848 265.002666 157.653333 0 295.338667-108.970667 334.848-264.96a35.712 35.712 0 0 1 43.52-26.325333 36.650667 36.650667 0 0 1 25.728 44.544c-40.106667 158.762667-165.674667 280.021333-322.986667 311.893333-157.354667 31.872-318.634667-31.274667-414.933333-162.432v36.266667a36.224 36.224 0 0 1-34.005333 36.48 36.010667 36.010667 0 0 1-37.333334-32.981333l-0.170666-3.498667v-194.858667c0-17.92 12.757333-33.28 30.08-36.096zM512 85.333333c134.954667 0 257.024 66.048 333.824 170.538667v-36.437333c0-19.541333 14.933333-35.584 34.048-36.522667a36.053333 36.053333 0 0 1 37.290667 32.981333l0.170666 3.541334v194.816c0 5.034667-0.981333 9.813333-2.773333 14.165333l-1.194667 2.56a35.584 35.584 0 0 1-35.797333 19.84 36.010667 36.010667 0 0 1-30.72-27.264c-39.509333-155.989333-177.194667-264.96-334.848-264.96-157.653333 0-295.338667 108.970667-334.848 264.96a35.712 35.712 0 0 1-43.52 26.325333 36.650667 36.650667 0 0 1-25.728-44.501333C155.477333 216.96 321.664 85.333333 512 85.333333z m150.186667 211.968l2.56 2.389334c13.013333 13.312 13.994667 34.56 2.304 49.109333l-2.346667 2.602667L591.104 426.666667h80.768c19.114667 0 34.816 15.317333 35.712 34.773333a36.309333 36.309333 0 0 1-32.256 38.186667l-3.413333 0.170666h-115.754667v64.512h115.712c19.114667 0 34.816 15.36 35.712 34.816a36.309333 36.309333 0 0 1-32.256 38.144l-3.413333 0.170667h-115.754667v101.12a36.224 36.224 0 0 1-34.048 36.266667 36.053333 36.053333 0 0 1-37.290667-32.725334l-0.170666-3.541333v-101.12H368.896a36.138667 36.138667 0 0 1-35.712-34.773333 36.309333 36.309333 0 0 1 32.298667-38.186667l3.413333-0.170667h115.669333v-64.512h-115.626666a36.138667 36.138667 0 0 1-35.754667-34.816 36.309333 36.309333 0 0 1 32.298667-38.144l3.413333-0.170666h80.768L376.106667 351.402667a37.162667 37.162667 0 0 1-1.194667-50.474667 35.2 35.2 0 0 1 49.237333-3.626667l2.56 2.389334 93.696 95.829333 93.738667-95.829333a35.2 35.2 0 0 1 48.042667-2.389334z" fill="#000000" p-id="4158"></path></svg>